<svg xmlns="http://www.w3.org/2000/svg" width="32" height="32" id="cloud"><path fill="none" stroke="#2b4255" stroke-linecap="round" stroke-linejoin="round" d="M19.348 7.711c-2.783.215-5.193 2.097-6.085 4.807a5.388 5.388 0 0 0-1.138-.125c-2.804 0-5.146 2.163-5.4 4.987a4.603 4.603 0 0 0-1.575-.285c-2.568 0-4.65 2.106-4.65 4.703 0 2.597 2.082 4.702 4.65 4.702.088 0 .176-.01.263-.016.042 0 .083.016.124.016h20.925c.383 0 .744-.085 1.087-.211 2.336-.667 3.949-2.821 3.951-5.275a5.499 5.499 0 0 0-2.552-4.647"></path><path style="line-height:normal;text-indent:0;text-align:start;text-decoration-line:none;text-decoration-style:solid;text-decoration-color:#000;text-transform:none;block-progression:tb;isolation:auto;mix-blend-mode:normal" fill="#f8b84e" d="M503 1334.362c-3.86 0-7 3.14-7 7s3.14 7 7 7 7-3.14 7-7-3.14-7-7-7zm0 1c3.32 0 6 2.68 6 6s-2.68 6-6 6-6-2.68-6-6 2.68-6 6-6z" color="#000" font-family="sans-serif" font-weight="400" overflow="visible" transform="translate(-478 -1330.362)"></path><g fill="none" stroke="#f8b84e" stroke-linecap="round" stroke-linejoin="round" stroke-width="1.875" transform="translate(30.333 -511.86) scale(.53333)"><path d="M-10.52 972.862a.978.978 0 0 0-.98.98v1.231a5.5 5.5 0 0 0-1.176.492l-.873-.873a.978.978 0 0 0-1.387 0l-.734.735a.978.978 0 0 0 0 1.386l.87.87a5.5 5.5 0 0 0-.485 1.18h-1.235a.978.978 0 0 0-.98.98v1.039c0 .543.437.98.98.98h1.23a5.5 5.5 0 0 0 .491 1.178l-.87.871a.978.978 0 0 0 0 1.387l.733.734a.978.978 0 0 0 1.387 0l.87-.869a5.5 5.5 0 0 0 1.179.484v1.235c0 .543.437.98.98.98h1.04c.543 0 .98-.437.98-.98v-1.23a5.5 5.5 0 0 0 1.176-.493l.873.873a.978.978 0 0 0 1.387 0l.734-.734a.978.978 0 0 0 0-1.387l-.87-.87a5.5 5.5 0 0 0 .485-1.179h1.235c.543 0 .98-.437.98-.98v-1.04a.978.978 0 0 0-.98-.98h-1.23a5.5 5.5 0 0 0-.493-1.176l.873-.873a.978.978 0 0 0 0-1.386l-.734-.735a.978.978 0 0 0-1.387 0l-.87.87a5.5 5.5 0 0 0-1.179-.485v-1.234a.978.978 0 0 0-.98-.98h-1.04z"></path><circle cx="-10" cy="980.362" r="2.5"></circle></g></svg>