<svg xmlns="http://www.w3.org/2000/svg" width="64" height="64" viewBox="0 0 64 64" id="international-container"><path fill="#636a74" d="M62,41l-6,2.16q-3,1.065-6,2.15l-6,2.16c-2.33.83-4.67,1.67-7,2.51-2.33-.89-4.67-1.79-7-2.68-2-.77-4-1.53-6-2.3q7.185-2.76,14.35-5.52,4.35-1.68,8.7-3.34c.01-.01.01-.01.02-.01.98-.38,1.95-.75,2.93-1.13l.36.18.12.06c1.66.83,3.33,1.66,4.99,2.5.33.16.65.32.98.48Q59.225,39.615,62,41Z"></path><path fill="#4d5662" d="M62 41V54l-6 2.16v-13zM56 43.16v13l-6 2.16V45.31Q53 44.23 56 43.16zM50 45.31V58.32l-6 2.16V47.47zM44 47.47V60.48c-2.33.84-4.67 1.68-7 2.52V49.98C39.33 49.14 41.67 48.3 44 47.47z"></path><path fill="#7a8089" d="M37 49.98V63c-2.33-.9-4.67-1.8-7-2.69V47.3C32.33 48.19 34.67 49.09 37 49.98zM30 47.3V60.31L24 58V45C26 45.77 28 46.53 30 47.3z"></path><path fill="#66a9ff" d="M47.05 36.14q-4.35 1.665-8.7 3.34c.08-.63.16-1.27.22-1.92A61.31954 61.31954 0 0047.05 36.14zM58 29c0 .25-.01.5-.02.75a16.76111 16.76111 0 01-2.51 7.99c-1.66-.84-3.33-1.67-4.99-2.5.01-.04.01-.07.02-.11C55.16 33.53 58 31.37 58 29z"></path><path fill="#66a9ff" d="M55.47,37.74a16.76111,16.76111,0,0,0,2.51-7.99,27.915,27.915,0,0,1-1.53,8.47C56.12,38.06,55.8,37.9,55.47,37.74Z"></path><path fill="#66a9ff" d="M58,29c0,2.37-2.84,4.53-7.5,6.13A37.29033,37.29033,0,0,0,51,29a36.04941,36.04941,0,0,0-.51-6.13C55.14,24.47,58,26.64,58,29Z"></path><path fill="#66a9ff" d="M30,1A28.00509,28.00509,0,0,1,58,29c0-6.87-4.4-12.97-11.2-16.8C42.97,5.4,36.87,1,30,1Z"></path><path fill="#66a9ff" d="M46.8,12.2C53.6,16.03,58,22.13,58,29c0-2.36-2.86-4.53-7.51-6.13A32.40317,32.40317,0,0,0,46.8,12.2Z"></path><path fill="#66a9ff" d="M51,29a37.29033,37.29033,0,0,1-.5,6.13c-.04.02-.09.03-.14.05L50,35c-.98.38-1.95.75-2.93,1.13-.01,0-.01,0-.02.01a61.31954,61.31954,0,0,1-8.48,1.42A83.23739,83.23739,0,0,0,39,29a80.43335,80.43335,0,0,0-.44-8.56,53.453,53.453,0,0,1,11.93,2.43A36.04941,36.04941,0,0,1,51,29Z"></path><path fill="#66a9ff" d="M50.49,22.87a53.453,53.453,0,0,0-11.93-2.43A53.453,53.453,0,0,0,36.13,8.51,32.40317,32.40317,0,0,1,46.8,12.2,32.40317,32.40317,0,0,1,50.49,22.87Z"></path><path fill="#66a9ff" d="M30 1c6.87 0 12.97 4.4 16.8 11.2A32.40317 32.40317 0 0036.13 8.51C34.53 3.86 32.36 1 30 1zM39 29a83.23739 83.23739 0 01-.43 8.56A83.3553 83.3553 0 0130 38a80.62521 80.62521 0 01-8.57-.44A83.38284 83.38284 0 0121 29a80.43335 80.43335 0 01.44-8.56A80.43335 80.43335 0 0130 20a80.43335 80.43335 0 018.56.44A80.43335 80.43335 0 0139 29z"></path><path fill="#66a9ff" d="M38.57 37.56c-.06.65-.14 1.29-.22 1.92Q31.18 42.24 24 45v4.52c-.04-.01-.09-.01-.13-.02a55.13014 55.13014 0 01-2.44-11.94A80.62521 80.62521 0 0030 38 83.3553 83.3553 0 0038.57 37.56zM36.13 8.51a53.453 53.453 0 012.43 11.93A80.43335 80.43335 0 0030 20a80.43335 80.43335 0 00-8.56.44A53.453 53.453 0 0123.87 8.51a37.0951 37.0951 0 0112.26 0z"></path><path fill="#66a9ff" d="M36.13 8.51a37.0951 37.0951 0 00-12.26 0C25.47 3.86 27.64 1 30 1S34.53 3.86 36.13 8.51zM24 55.84v.52A28.02249 28.02249 0 012 29c0 6.87 4.4 12.98 11.21 16.81A22.15521 22.15521 0 0024 55.84z"></path><path fill="#66a9ff" d="M24 49.87v5.97A22.15521 22.15521 0 0113.21 45.81 32.89076 32.89076 0 0023.87 49.5C23.91 49.62 23.96 49.75 24 49.87zM30 1c-2.36 0-4.53 2.86-6.13 7.51A32.40317 32.40317 0 0013.2 12.2C17.03 5.4 23.13 1 30 1z"></path><path fill="#66a9ff" d="M23.87 8.51a53.453 53.453 0 00-2.43 11.93A53.453 53.453 0 009.51 22.87 32.40317 32.40317 0 0113.2 12.2 32.40317 32.40317 0 0123.87 8.51zM21.43 37.56A55.13014 55.13014 0 0023.87 49.5a32.89076 32.89076 0 01-10.66-3.69 32.782 32.782 0 01-3.7-10.68A53.80155 53.80155 0 0021.43 37.56z"></path><path fill="#66a9ff" d="M21.44 20.44A80.43335 80.43335 0 0021 29a83.38284 83.38284 0 00.43 8.56A53.80155 53.80155 0 019.51 35.13a37.0951 37.0951 0 010-12.26A53.453 53.453 0 0121.44 20.44zM30 1C23.13 1 17.03 5.4 13.2 12.2 6.4 16.03 2 22.13 2 29A28.00509 28.00509 0 0130 1z"></path><path fill="#66a9ff" d="M2 29c0-6.87 4.4-12.97 11.2-16.8A32.40317 32.40317 0 009.51 22.87C4.86 24.47 2 26.64 2 29zM9.51 35.13a32.782 32.782 0 003.7 10.68C6.4 41.98 2 35.87 2 29 2 31.36 4.86 33.53 9.51 35.13z"></path><path fill="#66a9ff" d="M9.51,22.87a37.0951,37.0951,0,0,0,0,12.26C4.86,33.53,2,31.36,2,29S4.86,24.47,9.51,22.87Z"></path><g><path d="M37,64a.99943.99943,0,0,1-1-1V50.668L23.6416,45.93359a1,1,0,1,1,.7168-1.86718l13,4.98047A.9997.9997,0,0,1,38,49.98047V63A.99943.99943,0,0,1,37,64Z"></path><path d="M37,64a.9899.9899,0,0,1-.35938-.06738l-13-5A.99991.99991,0,0,1,23,58V45a.9997.9997,0,0,1,.6416-.93359l26-10a1.00682,1.00682,0,0,1,.80567.03906l12,6A1.0004,1.0004,0,0,1,63,41V54a1.00144,1.00144,0,0,1-.66113.94141l-25,8.999A.98718.98718,0,0,1,37,64ZM25,57.31348l12.01172,4.61914L43.66113,59.54h0L61,53.29688V41.61816L49.94727,36.0918,25,45.68652Z"></path><path d="M37 50.98047A1 1 0 0136.66016 49.04c2.332-.8418 4.67285-1.68164 7.0039-2.5127l5.99707-2.1582q3.00294-1.08105 6.00391-2.15137l5.99609-2.15918a1.00054 1.00054 0 01.67774 1.88282l-6 2.16015q-3.0044 1.06641-6 2.14942l-6 2.16015c-2.332.83008-4.6709 1.66992-6.999 2.50977A.98966.98966 0 0137 50.98047zM30 61.30762a.99943.99943 0 01-1-1V47.29883a1 1 0 012 0V60.30762A.99943.99943 0 0130 61.30762z"></path><path d="M44 61.48047a.99943.99943 0 01-1-1V47.46973a1 1 0 012 0V60.48047A.99943.99943 0 0144 61.48047zM50 59.32031a.99942.99942 0 01-1-1V45.30957a1 1 0 012 0V58.32031A.99942.99942 0 0150 59.32031zM56 57.16016a.99943.99943 0 01-1-1v-13a1 1 0 112 0v13A.99943.99943 0 0156 57.16016zM27 54a.99943.99943 0 01-1-1V51a1 1 0 012 0v2A.99943.99943 0 0127 54zM33 56a.99943.99943 0 01-1-1V53a1 1 0 012 0v2A.99943.99943 0 0133 56z"></path><path d="M24.001,57.35547a.94409.94409,0,0,1-.21387-.02344A28.9841,28.9841,0,1,1,57.38965,38.55176a1,1,0,1,1-1.88867-.65821A27.0031,27.0031,0,1,0,24.21289,55.37891a.99978.99978,0,0,1-.21191,1.97656Z"></path><path d="M24,56.84082a1.00231,1.00231,0,0,1-.36914-.07031C14.28125,53.06055,8,41.90039,8,29,8,13.00977,17.86914,0,30,0S52,13.00977,52,29a38.07427,38.07427,0,0,1-.53809,6.40625.99956.99956,0,1,1-1.9707-.33594A36.14317,36.14317,0,0,0,50,29C50,14.1123,41.02832,2,30,2S10,14.1123,10,29c0,11.89941,5.9082,22.55371,14.36914,25.91113A1.00011,1.00011,0,0,1,24,56.84082Z"></path><path d="M24,50.86914a1.00026,1.00026,0,0,1-.94141-.66211C21.11523,44.7959,20,37.06641,20,29,20,14.94141,23.50488,0,30,0S40,14.94141,40,29a82.72391,82.72391,0,0,1-.66016,10.61035.99956.99956,0,1,1-1.98242-.25781A81.00934,81.00934,0,0,0,38,29c0-15.91113-4.21582-27-8-27s-8,11.08887-8,27c0,7.84473,1.07227,15.32812,2.94141,20.53125A.99968.99968,0,0,1,24,50.86914Z"></path><path d="M24.001,50.5166a1.01608,1.01608,0,0,1-.16211-.01269C10.60449,48.33691,1,39.294,1,29,1,16.86914,14.00977,7,30,7s29,9.86914,29,22a17.557,17.557,0,0,1-2.67676,9.25684,1.00022,1.00022,0,1,1-1.707-1.043A15.58019,15.58019,0,0,0,57,29C57,17.97168,44.8877,9,30,9S3,17.97168,3,29c0,9.30859,8.89941,17.52246,21.16113,19.5293a1.00016,1.00016,0,0,1-.16015,1.9873Z"></path><path d="M30,39C15.94141,39,1,35.49512,1,29S15.94141,19,30,19s29,3.50488,29,10c0,2.81055-2.877,5.27441-8.31934,7.125a.99966.99966,0,0,1-.64453-1.89258C54.39648,32.749,57,30.793,57,29c0-3.78418-11.08887-8-27-8S3,25.21582,3,29s11.08887,8,27,8a71.57564,71.57564,0,0,0,16.8291-1.83594,1,1,0,1,1,.48047,1.94141A73.59979,73.59979,0,0,1,30,39Z"></path></g></svg>