<svg xmlns="http://www.w3.org/2000/svg" enable-background="new 0 0 66 66" viewBox="0 0 66 66" id="sports-businessman"><path fill="#E1EAF3" d="M26.9271,61.0078c0,1.0288-0.3894,1.9676-1.0294,2.6751c-0.5351,0.5928-1.2458,1.0244-2.0501,1.2123
			C23.5543,64.9634,23.2492,65,22.9348,65c-1.9168,0-3.5185-1.3518-3.9036-3.1539c-0.0583-0.2704-0.0887-0.5507-0.0887-0.8384
			c0-0.5414,0.1079-1.0579,0.3032-1.5286c0.6003-1.4467,2.0259-2.4637,3.689-2.4637
			C25.1399,57.0155,26.9271,58.8027,26.9271,61.0078z"></path><polygon fill="#0E151F" points="23.245 57.33 23.344 58.443 21.995 59.092 20.784 58.462 21.651 56.986 23.344 56.523"></polygon><path fill="#9B673D" d="M37.0041,60.5612c0,0,0.9937,1.2261,1.3957,1.5616c0.4089,0.3412,1.6419,1.0054,1.4951,1.5173
			c-0.1216,0.4241-1.276,0.3869-1.7166,0.4098c-0.6163,0.032-1.9321,0.0181-2.4476-0.3212
			c-0.2797-0.1841-0.7531-1.1075-0.7531-1.1075l-0.0886,0.5537l-1.1296-0.4651l0.0415-2.1485c0,0,1.1879-0.7199,1.2322-0.7309
			s1.927,0.7199,1.927,0.7199"></path><path fill="#7D5332" d="M27.1159,53.7873c0.3633,0.9098,0.5401,1.8324,0.2508,2.7867l-0.1257,0.9598l-1.8967-0.0114v-0.6056
			c0,0-1.76,0.4996-2.3652,0.5256c-1.0843,0.0466-3.2356-0.432-4.2746-0.7567c-0.2027-0.0633-0.7595-0.4499-0.73-0.6601
			c0.1187-0.8447,2.6105,0.0935,3.4049-0.2171c0.735-0.2874,1.8766-2.5384,1.8766-2.5384s1.3112-0.6494,1.4483-0.558
			C24.8416,52.8035,27.1159,53.7873,27.1159,53.7873z"></path><path fill="#0E151F" d="M41.401 35.1053l-4.3969 25.4559c-.976.3977-2.0574.3386-3.2032 0 0 0 2.0661-25.1292.1791-25.6549-.3318-.0924-5.4579 4.2589-6.108 6.3666-.2751.8919-.756 12.5144-.756 12.5144-1.2474.5908-2.5387.3264-3.8597-.5173 0 0 .2986-14.4248.6764-15.817.5236-1.9293 4.6092-6.5341 4.6092-6.5341s1.8768-3.6525 1.9166-3.7122 1.1738-2.6063 1.3927-2.6063 4.3571 0 4.3571 0l5.2922 5.0336.5372 3.8399L41.401 35.1053zM40.3998 5.0675c-.2782-2.9956-1.8665-4.2595-3.7017-4.0441-2.0969.2461-3.0169 1.9776-2.2574 4.5683 0 0 1.0806 1.4015 1.2838 1.4015.2033 0 3.6269-.321 3.7445-.4172C39.5867 6.4798 40.3998 5.0675 40.3998 5.0675z"></path><path fill="#F7B198" d="M39.131,7.5432l0.4032-0.6644c0.9647-0.7882,1.3006-2.2191,0.3872-2.0041
			c-0.3257,0.0766-0.6377,1.1767-0.6377,1.1767l-0.205-0.1518c0,0,0.1684-0.8653,0.1063-1.1463
			c-0.0697-0.3154-0.5018-0.8616-0.5162-1.1843c-0.0112-0.2523,0.2628-0.7878,0.1291-1.0021
			c-0.3503-0.5612-1.9426-0.4508-2.6039-0.4707c-0.5446-0.0164-1.5107-0.1518-1.5411,1.5411
			c-0.0092,0.5125-0.2041,1.53-0.1822,2.0421c0.019,0.4429,0.2113,1.3171,0.3492,1.7384c0.1278,0.3906,0.6144,1.525,0.6144,1.525
			l0.4788,1.1927l2.0193,0.1822l0.668-0.8275c0,0-0.1898,0.1822-0.1898,0.2581c0,0.2116,0.6155-1.5918,0.6529-1.6929L39.131,7.5432z
			"></path><path fill="#F6A98D" d="M39.5773,9.7389c-0.3297-0.4117-0.4088-1.267-0.4463-2.1957c-1.0222,1.7685-2.1878,2.7459-3.6968,1.3996
			l0.231,1.2495c0,0,0.0314,1.8017,0.0742,1.8338c0.0428,0.0321,1.2946,0.1712,1.3695,0.1391
			c0.0749-0.0321,1.5192-1.1555,1.6155-1.1876S39.5773,9.7389,39.5773,9.7389z"></path><path fill="#CEDDED" d="M37.5011,11.4212h-1.2547c0,0-1.9615,1.3898-1.9536,1.358c0.0079-0.0318-1.5089,11.8169-1.4692,11.9042
			c0.0397,0.0874,0.1747,1.493,0.1747,1.493s2.438,0.6194,3.6292,0.3256c1.1912-0.2938,2.708-4.8681,2.6842-4.8363
			c-0.0238,0.0318,0.0874-6.4484,0.1588-5.7258c0.0715,0.7227,0.4368-2.2077,0.4924-2.311
			c0.0556-0.1032-0.6115-1.5724-0.6115-1.5724s-1.3659-0.6035-1.3659-0.548C37.9855,11.5642,37.5011,11.4212,37.5011,11.4212z"></path><path fill="#101B2B" d="M43.6061,35.1443c0,0-3.2574-0.0273-4.3333-0.1618c-1.3047-0.1637-2.1096-2.6125-2.4215-5.7707
			c-0.1823-1.8467-0.3014-5.4737-0.155-7.5126c0.0081-0.116,0.0174-0.227,0.0273-0.3318c0.4242-4.4331,1.8703-8.3721,2.9895-10.9263
			c0,0,0.6561,0.8787,0.9618,1.066c0.0391,0.0242,0.0831,0.0484,0.1302,0.0738c0.9655,0.5054,3.5048,1.1534,3.5259,1.3921
			c0.1048,1.2036-0.9153,3.885-1.1305,5.1965C42.2499,23.9694,43.6061,35.1443,43.6061,35.1443z"></path><path fill="#E1EAF3" d="M39.7131,10.4412l-0.1358-0.7023c-0.6994,0.5978-1.582,1.1513-2.5366,1.6873l1.5955,1.682
			c0,0,1.0846-0.1258,1.1239-0.2201C39.7994,12.7938,39.7131,10.4412,39.7131,10.4412z"></path><path fill="#273240" d="M41.3142,12.6872c0,0-3.9061,8.3969-4.6179,9.012c0.0081-0.116,0.0174-0.227,0.0273-0.3318
			c0.4242-4.4331,1.8703-8.3721,2.9895-10.9263c0,0,0.6561,0.8787,0.9618,1.066c0.0391,0.0242,0.0831,0.0484,0.1302,0.0738
			c0.0558,0.1147,0.3007,0.5234,0.3007,0.5234l-0.666,0.2809L41.3142,12.6872z"></path><path fill="#F7B198" d="M42.1969,18.2156l-0.8877-0.4167l-0.5254-0.7971l-0.997-1.6421c-0.1752-0.2885-0.5954-0.2841-0.7645,0.008
			c-0.0547,0.2013-0.1023,0.2509-0.0091,0.4289l0.6835,1.3049c0,0-1.5245,0.4788-1.7301,0.924
			c-0.276,0.5976,0.0388,2.1725,0.5616,2.5726c0.2179,0.1667,0.8264,0.1428,1.1051,0.154c0.6026,0.0243,2.4014,0.2286,2.4014,0.2286
			l1.2491-0.6543L42.1969,18.2156z"></path><path fill="#273240" d="M44.3308 12.9733c1.2506-.0068 4.7028 9.6367 3.411 10.9268-1.1605 1.159-5.7069-2.9197-5.7069-2.9197.4201-1.0297.4964-1.8646.1621-2.7649l1.0324.2553C43.2294 18.471 42.9291 12.981 44.3308 12.9733zM28.0384 21.0556c-.08.26 2.05 3.45 2.05 3.45-.83.28-1.42.81-1.88 1.49 0 0-4-4.08-3.97-5.86.03-1.47 6.07-7.38 6.07-7.38l.97 1.15.15 4.39-1.22 1.11C30.2083 19.4056 28.2484 20.4056 28.0384 21.0556z"></path><polygon fill="#0E151F" points="25.943 59.122 24.811 59.23 24.801 61.002 25.687 61.78 26.533 60.539"></polygon><polygon fill="#0E151F" points="21.916 60.923 20.706 61.878 21.208 63.483 22.773 63.473 23.216 61.947"></polygon><path fill="#0E151F" d="M25.8977 63.6829c-.5351.5928-1.2458 1.0244-2.0501 1.2123l.1755-.6151 1.5651-.8954C25.5882 63.3846 25.7278 63.5161 25.8977 63.6829zM19.4976 59.5511l-.0378 1.6228-.4285.6722c-.0583-.2704-.0887-.5507-.0887-.8384 0-.5414.1079-1.0579.3032-1.5286L19.4976 59.5511z"></path><path fill="#E1EAF3" d="M37.0407,11.4262l-1.3755-1.234l-0.3184,0.6433l-0.7663,2.0526c0,0,0.6681-0.5973,0.6602-0.5738
			c-0.0079,0.0236,0.2201,0.731,0.2201,0.731L37.0407,11.4262z"></path><path fill="#101B2B" d="M35.2725,12.1917c-0.7844,2.8934-0.2803,8.0732-0.9767,11.2649
			c-0.1036,0.4731-0.2332,0.9023-0.3975,1.2743c-0.8322,1.8864-5.287,6.1217-5.3565,6.1881l0.6189-1.4833
			c0,0,2.1654-3.7895,2.2919-5.1326c0.1067-1.128-1.248-4.8933-1.248-4.8933c0.289,0,0.3619-6.2587,0.0996-6.6587
			c-0.0422-0.0645,1.931-0.5748,3.3963-1.0753c1.7197-0.5877,1.3613-0.6728,1.6464-0.8402
			C35.3469,10.8355,35.3618,11.8643,35.2725,12.1917z"></path><path fill="#273240" d="M35.2725,12.1917c-0.7844,2.8934-0.2803,8.0732-0.9767,11.2649c-0.0074-0.0074-0.0137-0.0161-0.0205-0.026
			c-0.7596-1.1081-1.4107-10.8289-1.4107-10.8289l1.0387-0.1935l-0.7751-0.3485l0.5724-0.3838
			c1.7197-0.5877,1.3613-0.6728,1.6464-0.8402C35.3469,10.8355,35.3618,11.8643,35.2725,12.1917z"></path><path fill="#F7B198" d="M32.7083,26.1257c0,0-0.4,0.74-0.65,0.79c-0.41,0.08-1.05-0.78-1.46-0.84c-0.36-0.05-1.39,0.33-1.39,0.33
			l-1-0.41c0.46-0.68,1.05-1.21,1.88-1.49l0.47,0.02c0,0,1.42-0.6,1.93-0.68c0.28-0.04,0.98,0.06,1.1,0.32
			C33.8084,24.6556,32.7083,26.1257,32.7083,26.1257z"></path><path fill="#0E151F" d="M39.3997,2.2737c0,0-4.6153,1.7339-4.9895,1.2349c-0.4035-0.538,0.9489-1.8355,1.0977-1.8461
		c0.1746-0.0125,1.9524-0.1123,1.9554-0.1123c0.003,0,1.2878,0.3493,1.2878,0.3493L39.3997,2.2737z"></path></svg>